# xmcd
#
# Track frame offsets:
# 150
# 15513
# 31616
# 47124
# 62814
# 81570
# 98847
# 113704
# 134574
# 151059
# 169380
#
# Disc length: 2466 seconds
#
#
# Revision: 2
# Processed by: cddbd v1.5.1PL2 Copyright (c) Steve Scherf et al.
# Submitted via: FreeRIP 2.944 
#
DISCID=8909a00b
DTITLE=Travis Tritt - The Restless Kind
DYEAR=1996
DGENRE=Country
TTITLE0=Restless Kind
TTITLE1=Still In Love With You
TTITLE2=More Than You'll Ever Know
TTITLE3=Draggin' My Heart Around
TTITLE4=Helping Me Get Over You
TTITLE5=Back Up Against The Wall
TTITLE6=Double Trouble
TTITLE7=Did You Fall Far Enough
TTITLE8=She's Going Home With Me
TTITLE9=Sack Full Of Stones
TTITLE10=Where Corn Don't Grow
EXTD=
EXTT0=
EXTT1=
EXTT2=
EXTT3=
EXTT4=
EXTT5=
EXTT6=
EXTT7=
EXTT8=
EXTT9=
EXTT10=
PLAYORDER=
